[h264 @ 0x564a6aa85180] Reinit context to 480x864, pix_fmt: yuv420p
Input #0, mov,mp4,m4a,3gp,3g2,mj2, from '/var/www/html/project/media/video/original/VID-20240728-WA0075.mp4':
  Metadata:
    major_brand     : mp42
    minor_version   : 0
    compatible_brands: mp42isom
  Duration: 00:00:10.52, start: 0.000000, bitrate: 1778 kb/s
    Stream #0:0(und): Video: h264 (High), 1 reference frame (avc1 / 0x31637661), yuv420p(tv, bt709, left), 480x864, 1523 kb/s, 29.92 fps, 29.92 tbr, 90k tbn, 180k tbc (default)
    Stream #0:1(und): Audio: aac (LC) (mp4a / 0x6134706D), 48000 Hz, stereo, fltp, 256 kb/s (default)
Input #1, png_pipe, from '/var/www/html/project/static/images/templates/logo.png':
  Duration: N/A, bitrate: N/A
    Stream #1:0: Video: png, 1 reference frame, rgba(pc), 1920x1080 [SAR 2835:2835 DAR 16:9], 25 tbr, 25 tbn, 25 tbc
[h264 @ 0x564a6aaba9c0] Reinit context to 1280x720, pix_fmt: yuv420p
Input #2, mov,mp4,m4a,3gp,3g2,mj2, from '/var/www/html/project/static/images/templates/Codino.mp4':
  Metadata:
    major_brand     : mp42
    minor_version   : 1
    compatible_brands: isommp41mp42
    creation_time   : 2021-07-11T07:02:58.000000Z
  Duration: 00:00:02.00, start: 0.000000, bitrate: 1007 kb/s
    Stream #2:0(ita): Audio: aac (LC) (mp4a / 0x6134706D), 44100 Hz, stereo, fltp, 102 kb/s (default)
    Metadata:
      creation_time   : 2021-07-11T07:02:58.000000Z
      handler_name    : Core Media Audio
    Stream #2:1(und): Video: h264 (High), 1 reference frame (avc1 / 0x31637661), yuv420p(tv, bt709, progressive, left), 1280x720 [SAR 1:1 DAR 16:9], 813 kb/s, 25 fps, 25 tbr, 25k tbn, 50k tbc (default)
    Metadata:
      creation_time   : 2021-07-11T07:02:58.000000Z
      handler_name    : Core Media Video
[Parsed_scale_0 @ 0x564a6abb4300] w:1280 h:720 flags:'bilinear' interl:0
[Parsed_scale_2 @ 0x564a6aae88c0] w:1280 h:720 flags:'bilinear' interl:0
[Parsed_scale_4 @ 0x564a6abf8280] w:1280 h:720 flags:'bilinear' interl:0
Stream mapping:
  Stream #0:0 (h264) -> scale
  Stream #0:1 (aac) -> concat:in0:a0
  Stream #1:0 (png) -> scale
  Stream #2:0 (aac) -> concat:in1:a0
  Stream #2:1 (h264) -> scale
  concat:out:v0 -> Stream #0:0 (libx264)
  concat:out:a0 -> Stream #0:1 (aac)
Press [q] to stop, [?] for help
[h264 @ 0x564a6aaeb700] Reinit context to 480x864, pix_fmt: yuv420p
[h264 @ 0x564a6af30540] Reinit context to 1280x720, pix_fmt: yuv420p
[Parsed_scale_0 @ 0x564a6ba1e440] w:1280 h:720 flags:'bilinear' interl:0
[Parsed_scale_2 @ 0x564a6ba2b5c0] w:1280 h:720 flags:'bilinear' interl:0
[Parsed_scale_4 @ 0x564a6ba2c940] w:1280 h:720 flags:'bilinear' interl:0
[graph 0 input from stream 0:0 @ 0x564a6ba310c0] w:480 h:864 pixfmt:yuv420p tb:1/90000 fr:359/12 sar:0/1 sws_param:flags=2
[graph 0 input from stream 1:0 @ 0x564a6ba32080] w:1920 h:1080 pixfmt:rgba tb:1/25 fr:25/1 sar:2835/2835 sws_param:flags=2
[graph 0 input from stream 2:1 @ 0x564a6ba2b800] w:1280 h:720 pixfmt:yuv420p tb:1/25000 fr:25/1 sar:1/1 sws_param:flags=2
[graph_0_in_0_1 @ 0x564a6ba2fe00] tb:1/48000 samplefmt:fltp samplerate:48000 chlayout:0x3
[graph_0_in_2_0 @ 0x564a6ba2c4c0] tb:1/44100 samplefmt:fltp samplerate:44100 chlayout:0x3
[Parsed_concat_7 @ 0x564a6ba2f100] auto-inserting filter 'auto_resampler_0' between the filter 'graph_0_in_2_0' and the filter 'Parsed_concat_7'
[Parsed_scale_0 @ 0x564a6ba1e440] w:480 h:864 fmt:yuv420p sar:0/1 -> w:1280 h:720 fmt:yuv420p sar:0/1 flags:0x2
[Parsed_setsar_1 @ 0x564a6ba1e8c0] w:1280 h:720 sar:0/1 dar:16/9 -> sar:1/1 dar:16/9
[Parsed_scale_2 @ 0x564a6ba2b5c0] w:1920 h:1080 fmt:rgba sar:2835/2835 -> w:1280 h:720 fmt:yuva420p sar:1/1 flags:0x2
[Parsed_setsar_3 @ 0x564a6ba2bc40] w:1280 h:720 sar:1/1 dar:16/9 -> sar:1/1 dar:16/9
[Parsed_overlay_6 @ 0x564a6ba2dfc0] main w:1280 h:720 fmt:yuv420p overlay w:1280 h:720 fmt:yuva420p
[Parsed_overlay_6 @ 0x564a6ba2dfc0] [framesync @ 0x564a6ba2e128] Selected 1/90000 time base
[Parsed_overlay_6 @ 0x564a6ba2dfc0] [framesync @ 0x564a6ba2e128] Sync level 2
[Parsed_scale_4 @ 0x564a6ba2c940] w:1280 h:720 fmt:yuv420p sar:1/1 -> w:1280 h:720 fmt:yuv420p sar:1/1 flags:0x2
[Parsed_setsar_5 @ 0x564a6ba2d440] w:1280 h:720 sar:1/1 dar:16/9 -> sar:1/1 dar:16/9
[auto_resampler_0 @ 0x564a6ba3b1c0] ch:2 chl:stereo fmt:fltp r:44100Hz -> ch:2 chl:stereo fmt:fltp r:48000Hz
[libx264 @ 0x564a6aab52c0] using SAR=1/1
[libx264 @ 0x564a6aab52c0] using cpu capabilities: MMX2 SSE2Fast SSSE3 SSE4.2 AVX FMA3 BMI2 AVX2
[libx264 @ 0x564a6aab52c0] profile High, level 3.1
[libx264 @ 0x564a6aab52c0] 264 - core 155 r2917 0a84d98 - H.264/MPEG-4 AVC codec - Copyleft 2003-2018 - http://www.videolan.org/x264.html - options: cabac=1 ref=1 deblock=1:0:0 analyse=0x3:0x113 me=hex subme=2 psy=1 psy_rd=1.00:0.00 mixed_ref=0 me_range=16 chroma_me=1 trellis=0 8x8dct=1 cqm=0 deadzone=21,11 fast_pskip=1 chroma_qp_offset=0 threads=22 lookahead_threads=5 sliced_threads=0 nr=0 decimate=1 interlaced=0 bluray_compat=0 constrained_intra=0 bframes=3 b_pyramid=2 b_adapt=1 b_bias=0 direct=1 weightb=1 open_gop=0 weightp=1 keyint=250 keyint_min=25 scenecut=40 intra_refresh=0 rc_lookahead=10 rc=crf mbtree=1 crf=18.0 qcomp=0.60 qpmin=0 qpmax=69 qpstep=4 ip_ratio=1.40 aq=1:1.00
Output #0, mp4, to '/var/www/html/project/media/video/watermarks/VID-20240728-WA0075.mp4':
  Metadata:
    major_brand     : mp42
    minor_version   : 0
    compatible_brands: mp42isom
    encoder         : Lavf58.29.100
    Stream #0:0: Video: h264 (libx264), 1 reference frame (avc1 / 0x31637661), yuv420p(progressive), 1280x720 [SAR 1:1 DAR 16:9], q=-1--1, 29.92 fps, 11488 tbn, 29.92 tbc (default)
    Metadata:
      encoder         : Lavc58.54.100 libx264
    Side data:
      cpb: bitrate max/min/avg: 0/0/0 buffer size: 0 vbv_delay: -1
    Stream #0:1: Audio: aac (LC) (mp4a / 0x6134706D), 48000 Hz, stereo, fltp, delay 1024, 128 kb/s (default)
    Metadata:
      encoder         : Lavc58.54.100 aac
[Parsed_overlay_6 @ 0x564a6ba2dfc0] [framesync @ 0x564a6ba2e128] Sync level 0
[Parsed_concat_7 @ 0x564a6ba2f100] EOF on in0:v0, 1 streams left in segment.
[Parsed_concat_7 @ 0x564a6ba2f100] EOF on in0:a0, 0 streams left in segment.
[Parsed_concat_7 @ 0x564a6ba2f100] Segment finished at pts=10517333
[Parsed_concat_7 @ 0x564a6ba2f100] EOF on in1:v0, 1 streams left in segment.
[Parsed_concat_7 @ 0x564a6ba2f100] EOF on in1:a0, 0 streams left in segment.
[Parsed_concat_7 @ 0x564a6ba2f100] Segment finished at pts=12536020
No more output streams to write to, finishing.
frame=  363 fps= 80 q=-1.0 Lsize=    5028kB time=00:00:12.54 bitrate=3283.7kbits/s speed=2.75x    
[AVIOContext @ 0x564a6aa83440] Statistics: 0 seeks, 9 writeouts
video:4820kB audio:193kB subtitle:0kB other streams:0kB global headers:0kB muxing overhead: 0.289993%
Input file #0 (/var/www/html/project/media/video/original/VID-20240728-WA0075.mp4):
  Input stream #0:0 (video): 313 packets read (1992529 bytes); 313 frames decoded; 
  Input stream #0:1 (audio): 493 packets read (336628 bytes); 493 frames decoded (504832 samples); 
  Total: 806 packets (2329157 bytes) demuxed
Input file #1 (/var/www/html/project/static/images/templates/logo.png):
  Input stream #1:0 (video): 1 packets read (111578 bytes); 1 frames decoded; 
  Total: 1 packets (111578 bytes) demuxed
Input file #2 (/var/www/html/project/static/images/templates/Codino.mp4):
  Input stream #2:0 (audio): 89 packets read (26579 bytes); 87 frames decoded (89024 samples); 
  Input stream #2:1 (video): 50 packets read (203365 bytes); 50 frames decoded; 
  Total: 139 packets (229944 bytes) demuxed
Output file #0 (/var/www/html/project/media/video/watermarks/VID-20240728-WA0075.mp4):
  Output stream #0:0 (video): 363 frames encoded; 363 packets muxed (4935921 bytes); 
  Output stream #0:1 (audio): 588 frames encoded (601729 samples); 589 packets muxed (197990 bytes); 
  Total: 952 packets (5133911 bytes) muxed
[AVIOContext @ 0x564a6abba880] Statistics: 2 seeks, 23 writeouts
[libx264 @ 0x564a6aab52c0] frame I:3     Avg QP:12.46  size: 49729
[libx264 @ 0x564a6aab52c0] frame P:106   Avg QP:17.38  size: 24700
[libx264 @ 0x564a6aab52c0] frame B:254   Avg QP:20.62  size:  8535
[libx264 @ 0x564a6aab52c0] consecutive B-frames:  5.0%  5.0%  0.8% 89.3%
[libx264 @ 0x564a6aab52c0] mb I  I16..4: 42.1% 23.8% 34.1%
[libx264 @ 0x564a6aab52c0] mb P  I16..4:  8.4% 20.4%  4.2%  P16..4: 21.2% 13.2%  6.5%  0.0%  0.0%    skip:26.2%
[libx264 @ 0x564a6aab52c0] mb B  I16..4:  2.2%  4.2%  0.4%  B16..8: 25.3% 10.2%  0.9%  direct:18.4%  skip:38.3%  L0:40.4% L1:44.3% BI:15.4%
[libx264 @ 0x564a6aab52c0] 8x8 transform intra:59.9% inter:49.7%
[libx264 @ 0x564a6aab52c0] coded y,uvDC,uvAC intra: 56.8% 74.3% 28.4% inter: 12.9% 40.8% 1.8%
[libx264 @ 0x564a6aab52c0] i16 v,h,dc,p: 31% 47%  8% 15%
[libx264 @ 0x564a6aab52c0] i8 v,h,dc,ddl,ddr,vr,hd,vl,hu:  8% 58% 12%  3%  2%  1%  7%  2%  7%
[libx264 @ 0x564a6aab52c0] i4 v,h,dc,ddl,ddr,vr,hd,vl,hu: 10% 54%  9%  3%  4%  3%  9%  2%  7%
[libx264 @ 0x564a6aab52c0] i8c dc,h,v,p: 28% 50%  7% 15%
[libx264 @ 0x564a6aab52c0] Weighted P-Frames: Y:26.4% UV:17.9%
[libx264 @ 0x564a6aab52c0] kb/s:3158.20
[aac @ 0x564a6ab81f40] Qavg: 3973.200
[AVIOContext @ 0x564a6aa8c3c0] Statistics: 2368169 bytes read, 2 seeks
[AVIOContext @ 0x564a6aab2c00] Statistics: 111578 bytes read, 0 seeks
[AVIOContext @ 0x564a6aabe140] Statistics: 1530915 bytes read, 42 seeks
